<svg width="24" height="24" viewBox="0 0 24 24" fill="none" xmlns="http://www.w3.org/2000/svg">
<path d="M6.75788 24C5.85142 24 5.16301 23.752 4.69268 23.256C4.23089 22.7686 4 22.0374 4 21.0625V12.5708C4 11.6045 4.23089 10.8776 4.69268 10.3902C5.16301 9.90273 5.85142 9.65901 6.75788 9.65901H18.0075C18.9225 9.65901 19.6109 9.90273 20.0727 10.3902C20.543 10.8776 20.7782 11.6045 20.7782 12.5708V21.0625C20.7782 22.0374 20.543 22.7686 20.0727 23.256C19.6109 23.752 18.9225 24 18.0075 24H6.75788ZM6.18065 10.6339V6.78568C6.18065 5.2806 6.47141 4.02779 7.05291 3.02726C7.63442 2.01817 8.39979 1.26136 9.34901 0.756815C10.2982 0.252272 11.3116 0 12.3891 0C13.4751 0 14.4885 0.252272 15.4292 0.756815C16.3784 1.26136 17.1438 2.01817 17.7253 3.02726C18.3153 4.02779 18.6104 5.2806 18.6104 6.78568V10.6339H16.5067V6.55478C16.5067 5.57135 16.3143 4.74185 15.9295 4.06627C15.5532 3.3907 15.0529 2.88188 14.4286 2.53982C13.8129 2.19776 13.1331 2.02672 12.3891 2.02672C11.6537 2.02672 10.9738 2.19776 10.3495 2.53982C9.72528 2.88188 9.22501 3.3907 8.84874 4.06627C8.47247 4.74185 8.28434 5.57135 8.28434 6.55478V10.6339H6.18065Z" fill="#919399"/>
</svg>
