<svg width="24" height="24" viewBox="0 0 24 24" fill="none" xmlns="http://www.w3.org/2000/svg">
<path d="M12.0062 24C10.3592 24 8.81112 23.683 7.36181 23.0489C5.92074 22.4231 4.64848 21.5584 3.54503 20.455C2.44159 19.3515 1.57283 18.0793 0.938755 16.6382C0.312918 15.1889 0 13.6408 0 11.9938C0 10.3551 0.312918 8.81112 0.938755 7.36181C1.56459 5.91251 2.42923 4.63613 3.53268 3.53268C4.64436 2.42923 5.92074 1.56459 7.36181 0.938755C8.81112 0.312918 10.3551 0 11.9938 0C13.6325 0 15.1765 0.312918 16.6258 0.938755C18.0751 1.56459 19.3515 2.42923 20.455 3.53268C21.5584 4.63613 22.4231 5.91251 23.0489 7.36181C23.683 8.81112 24 10.3551 24 11.9938C24 13.6408 23.6871 15.1889 23.0612 16.6382C22.4354 18.0793 21.5708 19.3515 20.4673 20.455C19.3639 21.5584 18.0875 22.4231 16.6382 23.0489C15.1889 23.683 13.6449 24 12.0062 24ZM6.57128 18.1081H17.4411C17.6881 18.1081 17.8734 18.0299 17.9969 17.8734C18.1287 17.7169 18.1945 17.5234 18.1945 17.2928C18.1945 16.9717 18.0669 16.5517 17.8116 16.0329C17.5646 15.5059 17.1858 14.9789 16.6752 14.4519C16.1729 13.9249 15.5306 13.4843 14.7483 13.1302C13.9743 12.7679 13.0602 12.5867 12.0062 12.5867C10.9521 12.5867 10.034 12.7679 9.25167 13.1302C8.47761 13.4843 7.83531 13.9249 7.32476 14.4519C6.81421 14.9789 6.43541 15.5059 6.18837 16.0329C5.94133 16.5517 5.81781 16.9717 5.81781 17.2928C5.81781 17.5234 5.87957 17.7169 6.00309 17.8734C6.12661 18.0299 6.31601 18.1081 6.57128 18.1081ZM12.0062 11.6109C12.5744 11.6191 13.089 11.475 13.5502 11.1786C14.0196 10.8821 14.3942 10.4786 14.6742 9.96809C14.9542 9.45754 15.0942 8.88111 15.0942 8.23881C15.0942 7.63767 14.9542 7.09007 14.6742 6.59599C14.3942 6.09367 14.0196 5.69429 13.5502 5.39784C13.089 5.10139 12.5744 4.95317 12.0062 4.95317C11.438 4.95317 10.9192 5.10139 10.4498 5.39784C9.98044 5.69429 9.60576 6.09367 9.32578 6.59599C9.05404 7.09007 8.91817 7.63767 8.91817 8.23881C8.91817 8.88111 9.05404 9.45754 9.32578 9.96809C9.60576 10.4704 9.98044 10.8698 10.4498 11.1662C10.9192 11.4627 11.438 11.6109 12.0062 11.6109Z" fill="#919399"/>
</svg>
